<svg width="28" height="28" viewBox="0 0 28 28" fill="none" xmlns="http://www.w3.org/2000/svg">
<rect width="28" height="28" rx="14" fill="#F0F0F0"/>
<path d="M12.9633 18.2448C12.9101 18.1931 12.6828 17.9975 12.4958 17.8153C11.3197 16.7473 9.39467 13.9611 8.80708 12.5028C8.71267 12.2814 8.51283 11.7215 8.5 11.4223C8.5 11.1357 8.566 10.8624 8.69983 10.6016C8.88683 10.2766 9.18108 10.0158 9.5285 9.87295C9.76958 9.78097 10.491 9.63809 10.5038 9.63809C11.2931 9.49521 12.5755 9.41663 13.9927 9.41663C15.3429 9.41663 16.5731 9.49521 17.3742 9.61219C17.3871 9.62559 18.2836 9.76847 18.5907 9.92474C19.1517 10.2114 19.5 10.7713 19.5 11.3705V11.4223C19.4863 11.8126 19.1379 12.6332 19.1251 12.6332C18.5366 14.0129 16.706 16.7348 15.4896 17.8287C15.4896 17.8287 15.177 18.1368 14.9818 18.2707C14.7013 18.4797 14.3538 18.5833 14.0064 18.5833C13.6187 18.5833 13.2575 18.4663 12.9633 18.2448" fill="#27AE60"/>
</svg>
