<svg width="88" height="88" viewBox="0 0 88 88" fill="none" xmlns="http://www.w3.org/2000/svg">
<circle cx="44" cy="44" r="30" fill="#C7E8FD"/>
<circle cx="44" cy="44" r="21" fill="#C7E8FD" stroke="white" stroke-width="2"/>
<circle cx="44" cy="44" r="44" fill="#6FCF97"/>
<circle cx="44" cy="44" r="30" fill="#27AE60"/>
<path fill-rule="evenodd" clip-rule="evenodd" d="M36.7835 27.3335H51.2335C56.8835 27.3335 60.6668 31.3002 60.6668 37.2002V50.8185C60.6668 56.7002 56.8835 60.6668 51.2335 60.6668H36.7835C31.1335 60.6668 27.3335 56.7002 27.3335 50.8185V37.2002C27.3335 31.3002 31.1335 27.3335 36.7835 27.3335ZM43.0501 48.9835L50.9667 41.0669C51.5334 40.5002 51.5334 39.5835 50.9667 39.0002C50.4001 38.4335 49.4667 38.4335 48.9001 39.0002L42.0167 45.8835L39.1001 42.9669C38.5334 42.4002 37.6001 42.4002 37.0334 42.9669C36.4667 43.5335 36.4667 44.4502 37.0334 45.0335L41.0001 48.9835C41.2834 49.2669 41.6501 49.4002 42.0167 49.4002C42.4001 49.4002 42.7667 49.2669 43.0501 48.9835Z" fill="white"/>
</svg>
