<svg width="44" height="44" viewBox="0 0 44 44" fill="none" xmlns="http://www.w3.org/2000/svg">
<circle cx="22" cy="22" r="15" fill="#C7E8FD"/>
<circle cx="22" cy="22" r="10.5" fill="#C7E8FD" stroke="white"/>
<path d="M22 3C22 1.34315 20.6507 -0.0210209 19.0092 0.204223C15.7191 0.655693 12.5603 1.84826 9.77746 3.70767C6.15957 6.12506 3.33978 9.56099 1.67465 13.581C0.00952239 17.6009 -0.426151 22.0244 0.422724 26.292C1.2716 30.5596 3.3669 34.4796 6.44365 37.5564C9.52041 40.6331 13.4404 42.7284 17.708 43.5773C21.9756 44.4262 26.3991 43.9905 30.419 42.3253C34.439 40.6602 37.8749 37.8404 40.2923 34.2225C42.1517 31.4397 43.3443 28.2809 43.7958 24.9908C44.021 23.3493 42.6569 22 41 22H25C23.3431 22 22 20.6569 22 19V3Z" fill="#6BB1F7"/>
<path d="M22 10C22 8.34315 20.6437 6.96982 19.0199 7.299C17.1167 7.68483 15.2969 8.43852 13.6664 9.52796C11.1997 11.1762 9.27712 13.5189 8.14181 16.2597C7.00649 19.0006 6.70944 22.0166 7.28822 24.9264C7.867 27.8361 9.29561 30.5088 11.3934 32.6066C13.4912 34.7044 16.1639 36.133 19.0736 36.7118C21.9834 37.2906 24.9994 36.9935 27.7403 35.8582C30.4811 34.7229 32.8238 32.8003 34.472 30.3336C35.5615 28.7031 36.3152 26.8833 36.701 24.9801C37.0302 23.3563 35.6569 22 34 22H25C23.3431 22 22 20.6569 22 19V10Z" fill="#2B56F6"/>
</svg>
